<?xml version="1.0" encoding="UTF-8"?><svg xmlns="http://www.w3.org/2000/svg" xmlns:xlink="http://www.w3.org/1999/xlink" height="393.1" preserveAspectRatio="xMidYMid meet" version="1.0" viewBox="-0.8 -11.9 501.4 393.1" width="501.4" zoomAndPan="magnify"><defs><clipPath id="a"><path d="M 51 108 L 439 108 L 439 381.050781 L 51 381.050781 Z M 51 108"/></clipPath></defs><g><g id="change1_1"><path d="M 476.929688 365.6875 L 420.785156 366.21875 C 409.980469 366.320312 400.847656 358.0625 400.058594 347.285156 C 397.425781 311.214844 389.945312 275.496094 377.855469 241.410156 C 370.011719 219.292969 359.691406 197.113281 341.867188 181.847656 C 331.84375 173.261719 319.863281 167.25 307.605469 162.363281 C 289.445312 155.128906 269.804688 150.132812 250.421875 152.660156 C 232.644531 154.976562 216.265625 163.453125 201.152344 173.097656 C 168.011719 194.238281 138.28125 222.644531 122.496094 258.644531 C 108.597656 290.335938 106.355469 325.460938 106.234375 360.320312 C 106.195312 371.882812 96.714844 381.179688 85.15625 381.015625 L 34.378906 380.300781 C 20.722656 380.105469 8.851562 370.832031 5.40625 357.613281 C 2.519531 346.546875 0.859375 335.15625 0.515625 323.734375 C -0.136719 301.90625 -0.78125 279.921875 2.707031 258.367188 C 6.398438 235.570312 14.636719 213.753906 24.054688 192.667969 C 42.765625 150.777344 66.589844 110.753906 98.191406 77.492188 C 129.792969 44.234375 169.550781 17.925781 213.949219 6.359375 C 284.203125 -11.945312 363.511719 10.058594 414.289062 61.941406 C 447.882812 96.265625 468.566406 141.273438 482.757812 187.15625 C 498.628906 238.492188 500.628906 289.726562 499.863281 342.867188 C 499.679688 355.433594 489.5 365.570312 476.929688 365.6875" fill="#ebba8d"/></g><g clip-path="url(#a)" id="change2_1"><path d="M 417.878906 366.246094 C 408.578125 366.335938 400.859375 359.144531 400.238281 349.863281 C 397.777344 312.917969 390.234375 276.308594 377.855469 241.410156 C 370.011719 219.292969 359.691406 197.113281 341.867188 181.847656 C 331.84375 173.261719 319.863281 167.25 307.605469 162.363281 C 289.445312 155.128906 269.804688 150.132812 250.421875 152.660156 C 232.644531 154.976562 216.261719 163.453125 201.152344 173.09375 C 168.011719 194.238281 138.28125 222.644531 122.496094 258.644531 C 108.300781 291.007812 106.269531 326.945312 106.230469 362.53125 C 106.21875 372.855469 97.808594 381.191406 87.488281 381.046875 C 76.644531 380.894531 65.800781 380.742188 54.957031 380.589844 C 51.894531 372.335938 51.59375 363.296875 51.558594 353.675781 C 51.398438 306.234375 64.433594 259.390625 83.84375 216.398438 C 91.183594 200.140625 99.570312 184.128906 111.324219 170.714844 C 129.527344 149.941406 154.746094 136.589844 180.472656 126.546875 C 207.308594 116.066406 235.648438 108.636719 264.449219 108.1875 C 293.253906 107.734375 322.632812 114.601562 346.480469 130.753906 C 385.699219 157.316406 404.921875 204.339844 420.476562 249.078125 C 431.496094 280.773438 441.894531 313.980469 437.972656 347.308594 C 437.222656 353.675781 435.9375 359.941406 434.234375 366.09375 C 428.78125 366.144531 423.328125 366.195312 417.878906 366.246094" fill="#a0b29e"/></g><g id="change3_1"><path d="M 53.414062 167.441406 C 53.414062 167.683594 53.414062 167.925781 53.414062 168.167969 C 53.414062 170.210938 55.210938 172.164062 57.316406 172.070312 C 59.429688 171.976562 61.21875 170.355469 61.21875 168.167969 C 61.21875 167.925781 61.21875 167.683594 61.21875 167.441406 C 61.21875 165.398438 59.421875 163.445312 57.316406 163.539062 C 55.203125 163.632812 53.414062 165.253906 53.414062 167.441406 Z M 134.628906 75.792969 C 139.648438 75.792969 139.65625 67.992188 134.628906 67.992188 C 129.609375 67.992188 129.601562 75.792969 134.628906 75.792969 Z M 135.359375 193.222656 C 140.378906 193.222656 140.386719 185.421875 135.359375 185.421875 C 130.339844 185.421875 130.328125 193.222656 135.359375 193.222656 Z M 17.929688 358.789062 C 22.949219 358.789062 22.957031 350.984375 17.929688 350.984375 C 12.910156 350.984375 12.902344 358.789062 17.929688 358.789062 Z M 83.574219 364.621094 C 83.816406 364.621094 84.058594 364.621094 84.300781 364.621094 C 86.34375 364.621094 88.296875 362.828125 88.203125 360.722656 C 88.109375 358.609375 86.488281 356.820312 84.300781 356.820312 C 84.058594 356.820312 83.816406 356.820312 83.574219 356.820312 C 81.53125 356.820312 79.578125 358.613281 79.671875 360.722656 C 79.765625 362.835938 81.386719 364.621094 83.574219 364.621094 Z M 425.644531 112.261719 C 430.664062 112.261719 430.675781 104.460938 425.644531 104.460938 C 420.625 104.460938 420.617188 112.261719 425.644531 112.261719 Z M 426.945312 191.667969 C 426.703125 191.425781 426.460938 191.183594 426.214844 190.9375 C 424.769531 189.492188 422.125 189.386719 420.699219 190.9375 C 419.269531 192.496094 419.15625 194.914062 420.699219 196.457031 C 420.941406 196.699219 421.1875 196.941406 421.429688 197.183594 C 422.875 198.628906 425.519531 198.738281 426.945312 197.183594 C 428.375 195.628906 428.488281 193.210938 426.945312 191.667969 Z M 407.410156 261.78125 C 412.433594 261.78125 412.441406 253.980469 407.410156 253.980469 C 402.390625 253.980469 402.382812 261.78125 407.410156 261.78125 Z M 465.761719 290.957031 C 470.78125 290.957031 470.789062 283.15625 465.761719 283.15625 C 460.742188 283.15625 460.730469 290.957031 465.761719 290.957031 Z M 474.515625 355.140625 C 479.53125 355.140625 479.542969 347.339844 474.515625 347.339844 C 469.492188 347.339844 469.484375 355.140625 474.515625 355.140625 Z M 424.1875 307.730469 C 424.429688 307.730469 424.675781 307.730469 424.917969 307.730469 C 426.957031 307.730469 428.910156 305.9375 428.816406 303.832031 C 428.722656 301.71875 427.105469 299.929688 424.917969 299.929688 C 424.675781 299.929688 424.429688 299.929688 424.1875 299.929688 C 422.144531 299.929688 420.191406 301.722656 420.285156 303.832031 C 420.382812 305.945312 422 307.730469 424.1875 307.730469 Z M 445.339844 246.464844 C 445.582031 246.464844 445.824219 246.464844 446.066406 246.464844 C 448.109375 246.464844 450.0625 244.671875 449.96875 242.5625 C 449.875 240.449219 448.253906 238.664062 446.066406 238.664062 C 445.824219 238.664062 445.582031 238.664062 445.339844 238.664062 C 443.300781 238.664062 441.34375 240.457031 441.4375 242.5625 C 441.53125 244.679688 443.152344 246.464844 445.339844 246.464844 Z M 390.636719 225.3125 C 395.65625 225.3125 395.664062 217.511719 390.636719 217.511719 C 385.617188 217.511719 385.609375 225.3125 390.636719 225.3125 Z M 400.117188 159.671875 C 405.136719 159.671875 405.144531 151.867188 400.117188 151.867188 C 395.097656 151.867188 395.089844 159.671875 400.117188 159.671875 Z M 447.273438 155.769531 C 447.273438 156.011719 447.273438 156.257812 447.273438 156.5 C 447.273438 158.539062 449.066406 160.496094 451.175781 160.398438 C 453.285156 160.304688 455.074219 158.6875 455.074219 156.5 C 455.074219 156.257812 455.074219 156.011719 455.074219 155.769531 C 455.074219 153.730469 453.28125 151.773438 451.175781 151.867188 C 449.0625 151.964844 447.273438 153.582031 447.273438 155.769531 Z M 374.699219 118.878906 C 374.714844 118.832031 374.730469 118.785156 374.746094 118.738281 C 374.617188 119.046875 374.484375 119.359375 374.355469 119.667969 C 374.558594 119.320312 374.398438 119.460938 373.882812 120.082031 C 373.265625 120.601562 373.128906 120.761719 373.476562 120.554688 C 373.164062 120.683594 372.855469 120.816406 372.542969 120.945312 C 372.632812 120.902344 372.730469 120.875 372.828125 120.855469 C 372.484375 120.902344 372.136719 120.949219 371.792969 120.996094 C 371.890625 120.980469 371.988281 120.976562 372.089844 120.988281 C 371.742188 120.941406 371.398438 120.894531 371.050781 120.847656 C 371.152344 120.859375 371.246094 120.890625 371.335938 120.933594 C 372.222656 121.28125 373.554688 121 374.34375 120.539062 C 375.152344 120.066406 375.921875 119.140625 376.136719 118.210938 C 376.363281 117.210938 376.3125 116.089844 375.742188 115.203125 C 375.160156 114.300781 374.40625 113.800781 373.410156 113.410156 C 372.234375 112.949219 370.609375 113.175781 369.535156 113.816406 C 368.363281 114.519531 367.609375 115.519531 367.179688 116.804688 C 366.527344 118.742188 367.925781 121.152344 369.902344 121.601562 C 372.058594 122.09375 374.007812 120.953125 374.699219 118.878906 Z M 260.078125 40.054688 C 265.101562 40.054688 265.109375 32.253906 260.078125 32.253906 C 255.058594 32.253906 255.050781 40.054688 260.078125 40.054688 Z M 173.285156 48.808594 C 178.304688 48.808594 178.3125 41.003906 173.285156 41.003906 C 168.265625 41.003906 168.257812 48.808594 173.285156 48.808594 Z M 339.582031 39.324219 C 344.601562 39.324219 344.609375 31.523438 339.582031 31.523438 C 334.5625 31.523438 334.554688 39.324219 339.582031 39.324219 Z M 314.054688 129.035156 C 314.539062 129.035156 315.023438 129.035156 315.511719 129.035156 C 317.550781 129.035156 319.507812 127.242188 319.410156 125.136719 C 319.316406 123.023438 317.699219 121.234375 315.511719 121.234375 C 315.023438 121.234375 314.539062 121.234375 314.054688 121.234375 C 312.011719 121.234375 310.058594 123.03125 310.152344 125.136719 C 310.246094 127.25 311.867188 129.035156 314.054688 129.035156 Z M 351.25 163.316406 C 356.269531 163.316406 356.277344 155.515625 351.25 155.515625 C 346.230469 155.515625 346.222656 163.316406 351.25 163.316406 Z M 333.015625 86.734375 C 338.035156 86.734375 338.046875 78.933594 333.015625 78.933594 C 327.996094 78.933594 327.988281 86.734375 333.015625 86.734375 Z M 383.34375 77.980469 C 383.585938 77.980469 383.828125 77.980469 384.070312 77.980469 C 386.113281 77.980469 388.066406 76.1875 387.972656 74.082031 C 387.878906 71.96875 386.257812 70.179688 384.070312 70.179688 C 383.828125 70.179688 383.585938 70.179688 383.34375 70.179688 C 381.304688 70.179688 379.347656 71.972656 379.441406 74.082031 C 379.535156 76.195312 381.15625 77.980469 383.34375 77.980469 Z M 303.113281 60.476562 C 308.132812 60.476562 308.140625 52.675781 303.113281 52.675781 C 298.09375 52.675781 298.085938 60.476562 303.113281 60.476562 Z M 276.285156 100.90625 C 276.527344 101.152344 276.769531 101.394531 277.015625 101.636719 C 278.460938 103.082031 281.105469 103.191406 282.53125 101.636719 C 283.960938 100.082031 284.074219 97.664062 282.53125 96.121094 C 282.289062 95.878906 282.046875 95.636719 281.800781 95.390625 C 280.355469 93.945312 277.710938 93.839844 276.285156 95.390625 C 274.855469 96.949219 274.742188 99.367188 276.285156 100.90625 Z M 197.136719 164.972656 C 197.863281 164.488281 198.59375 164 199.324219 163.515625 C 201.019531 162.382812 201.910156 160.019531 200.722656 158.175781 C 199.632812 156.488281 197.203125 155.566406 195.386719 156.777344 C 194.65625 157.265625 193.925781 157.75 193.195312 158.238281 C 191.503906 159.367188 190.609375 161.730469 191.796875 163.574219 C 192.886719 165.265625 195.320312 166.183594 197.136719 164.972656 Z M 223.609375 28.386719 C 223.855469 28.386719 224.097656 28.386719 224.339844 28.386719 C 226.382812 28.386719 228.335938 26.589844 228.242188 24.484375 C 228.148438 22.371094 226.527344 20.582031 224.339844 20.582031 C 224.097656 20.582031 223.855469 20.582031 223.609375 20.582031 C 221.570312 20.582031 219.617188 22.378906 219.710938 24.484375 C 219.804688 26.597656 221.425781 28.386719 223.609375 28.386719 Z M 198.8125 84.039062 C 198.570312 84.039062 198.328125 84.039062 198.085938 84.039062 C 196.042969 84.039062 194.089844 85.832031 194.183594 87.9375 C 194.277344 90.050781 195.898438 91.839844 198.085938 91.839844 C 198.328125 91.839844 198.570312 91.839844 198.8125 91.839844 C 200.855469 91.839844 202.808594 90.046875 202.714844 87.9375 C 202.617188 85.824219 201 84.039062 198.8125 84.039062 Z M 244.761719 132.683594 C 249.78125 132.683594 249.792969 124.882812 244.761719 124.882812 C 239.742188 124.882812 239.734375 132.683594 244.761719 132.683594 Z M 228.265625 68.757812 C 228.507812 69.242188 228.753906 69.730469 228.996094 70.214844 C 229.910156 72.042969 232.640625 72.703125 234.332031 71.613281 C 236.203125 70.40625 236.710938 68.234375 235.730469 66.277344 C 235.488281 65.789062 235.246094 65.304688 235.003906 64.820312 C 234.089844 62.988281 231.355469 62.328125 229.664062 63.417969 C 227.796875 64.625 227.289062 66.800781 228.265625 68.757812 Z M 106.183594 102.050781 C 106.425781 102.050781 106.671875 102.050781 106.914062 102.050781 C 108.953125 102.050781 110.90625 100.257812 110.8125 98.148438 C 110.71875 96.035156 109.101562 94.25 106.914062 94.25 C 106.671875 94.25 106.425781 94.25 106.183594 94.25 C 104.144531 94.25 102.1875 96.042969 102.28125 98.148438 C 102.378906 100.265625 103.996094 102.050781 106.183594 102.050781 Z M 166.722656 125.390625 C 171.742188 125.390625 171.75 117.589844 166.722656 117.589844 C 161.699219 117.589844 161.691406 125.390625 166.722656 125.390625 Z M 164.839844 170.976562 C 164.789062 170.957031 164.738281 170.941406 164.683594 170.921875 C 164.996094 171.054688 165.308594 171.183594 165.617188 171.316406 C 165.914062 171.492188 166.15625 171.726562 166.347656 172.007812 C 166.5625 172.332031 166.609375 172.371094 166.480469 172.128906 C 166.613281 172.4375 166.746094 172.746094 166.875 173.058594 C 166.835938 172.957031 166.8125 172.851562 166.804688 172.738281 C 166.851562 173.085938 166.898438 173.433594 166.945312 173.777344 C 166.945312 173.722656 166.945312 173.667969 166.945312 173.613281 C 166.898438 173.960938 166.851562 174.308594 166.808594 174.652344 C 166.816406 174.542969 166.847656 174.4375 166.894531 174.339844 C 167.234375 173.449219 166.964844 172.128906 166.5 171.335938 C 166.027344 170.527344 165.101562 169.753906 164.167969 169.542969 C 163.171875 169.316406 162.050781 169.363281 161.164062 169.933594 C 160.265625 170.515625 159.753906 171.269531 159.371094 172.265625 C 158.914062 173.460938 159.140625 175.046875 159.78125 176.136719 C 160.476562 177.320312 161.476562 178.054688 162.765625 178.5 C 164.695312 179.164062 167.117188 177.738281 167.5625 175.773438 C 168.058594 173.605469 166.90625 171.6875 164.839844 170.976562 Z M 201.476562 120.03125 C 201.476562 120.273438 201.476562 120.515625 201.476562 120.761719 C 201.476562 122.800781 203.269531 124.757812 205.378906 124.660156 C 207.492188 124.566406 209.277344 122.945312 209.277344 120.761719 C 209.277344 120.515625 209.277344 120.273438 209.277344 120.03125 C 209.277344 117.992188 207.484375 116.035156 205.378906 116.128906 C 203.265625 116.226562 201.476562 117.84375 201.476562 120.03125 Z M 163.804688 83.085938 C 168.824219 83.085938 168.832031 75.285156 163.804688 75.285156 C 158.785156 75.285156 158.773438 83.085938 163.804688 83.085938 Z M 76.4375 141.753906 C 76.683594 141.996094 76.925781 142.238281 77.167969 142.480469 C 78.613281 143.925781 81.261719 144.035156 82.683594 142.480469 C 84.113281 140.925781 84.226562 138.507812 82.683594 136.964844 C 82.441406 136.722656 82.199219 136.480469 81.957031 136.238281 C 80.511719 134.792969 77.863281 134.683594 76.4375 136.238281 C 75.007812 137.792969 74.898438 140.210938 76.4375 141.753906 Z M 94.515625 191.761719 C 99.535156 191.761719 99.542969 183.960938 94.515625 183.960938 C 89.492188 183.960938 89.484375 191.761719 94.515625 191.761719 Z M 22.304688 231.148438 C 22.792969 231.148438 23.277344 231.148438 23.765625 231.148438 C 25.804688 231.148438 27.761719 229.355469 27.664062 227.246094 C 27.570312 225.132812 25.953125 223.347656 23.765625 223.347656 C 23.277344 223.347656 22.792969 223.347656 22.304688 223.347656 C 20.265625 223.347656 18.3125 225.140625 18.40625 227.246094 C 18.5 229.359375 20.121094 231.148438 22.304688 231.148438 Z M 118.582031 153.105469 C 123.601562 153.105469 123.609375 145.304688 118.582031 145.304688 C 113.5625 145.304688 113.554688 153.105469 118.582031 153.105469 Z M 62.421875 206.351562 C 67.441406 206.351562 67.449219 198.550781 62.421875 198.550781 C 57.402344 198.550781 57.394531 206.351562 62.421875 206.351562 Z M 85.761719 258.136719 C 90.78125 258.136719 90.789062 250.335938 85.761719 250.335938 C 80.742188 250.335938 80.734375 258.136719 85.761719 258.136719 Z M 107.644531 233.335938 C 112.664062 233.335938 112.671875 225.535156 107.644531 225.535156 C 102.621094 225.535156 102.613281 233.335938 107.644531 233.335938 Z M 56.585938 253.757812 C 61.605469 253.757812 61.613281 245.957031 56.585938 245.957031 C 51.566406 245.957031 51.558594 253.757812 56.585938 253.757812 Z M 17.042969 297.109375 C 17.285156 296.863281 17.527344 296.621094 17.769531 296.378906 C 19.214844 294.933594 19.324219 292.285156 17.769531 290.863281 C 16.214844 289.433594 13.796875 289.320312 12.253906 290.863281 C 12.011719 291.105469 11.769531 291.347656 11.527344 291.59375 C 10.082031 293.035156 9.972656 295.683594 11.527344 297.109375 C 13.082031 298.539062 15.5 298.648438 17.042969 297.109375 Z M 44.1875 325.96875 C 49.207031 325.96875 49.214844 318.164062 44.1875 318.164062 C 39.167969 318.164062 39.160156 325.96875 44.1875 325.96875 Z M 82.84375 301.167969 C 87.863281 301.167969 87.871094 293.367188 82.84375 293.367188 C 77.824219 293.367188 77.816406 301.167969 82.84375 301.167969 Z M 58.773438 358.058594 C 53.746094 358.058594 53.753906 350.257812 58.773438 350.257812 C 63.804688 350.257812 63.792969 358.058594 58.773438 358.058594" fill="#bf7143"/></g></g></svg>