<?xml version="1.0" encoding="UTF-8"?><svg xmlns="http://www.w3.org/2000/svg" xmlns:xlink="http://www.w3.org/1999/xlink" height="483.4" preserveAspectRatio="xMidYMid meet" version="1.0" viewBox="0.0 0.0 486.5 483.4" width="486.5" zoomAndPan="magnify"><g id="change1_1"><path d="M363.0327148,0H123.4550781C55.3818359,0,0,55.3818359,0,123.4555664v236.5141602 c0,68.0732422,55.3818359,123.4550781,123.4550781,123.4550781h239.5776367 c68.0742188,0,123.4560547-55.3818359,123.4560547-123.4550781V123.4555664C486.4887695,55.3818359,431.1069336,0,363.0327148,0z M471.4887695,123.4555664v16.906311c-34.1678467-0.0043335-68.3411865-0.0075684-102.5214844-0.0099487 c-13.9890137-23.2214966-28.7236328-46.5958862-43.0019531-69.2357178 C314.3931885,52.7681274,302.4855957,33.8842163,290.9227295,15h72.1099854 C422.8354492,15,471.4887695,63.652832,471.4887695,123.4555664z M214.8092651,140.3485718l-9.1720581-14.6766968 C183.0558472,89.5466309,159.767334,52.2741089,137.1712036,15h136.1854248 c13.0946655,21.5775146,26.7244873,43.1948853,39.9212036,64.1176758 c12.6478271,20.0543213,25.6559448,40.6873779,38.1567383,61.2330933 C305.9144897,140.3480835,260.3704834,140.3476562,214.8092651,140.3485718z M119.6762085,15.072998 c24.0977173,39.9279785,49.0792236,79.8946533,73.241272,118.5495605l4.2038574,6.7266846 C136.4655762,140.3511353,75.7723389,140.3555908,15,140.3644409v-16.9088745 C15,64.9182739,61.6176758,17.0719604,119.6762085,15.072998z M363.0327148,468.4248047H123.4550781 C63.652832,468.4248047,15,419.7724609,15,359.9697266V155.3644409 c152.4802856-0.0230713,304.5269775-0.0227661,456.4887695-0.0026245v204.6079102 C471.4887695,419.7724609,422.8354492,468.4248047,363.0327148,468.4248047z M199.1298828,394.2460938 c-3.9790039,0-7.9580078-1.0449219-11.5854492-3.1367188c-7.6132812-4.390625-12.1582031-12.3769531-12.1582031-21.3652344 V240.5039062c0-8.9746094,4.5351562-16.9560547,12.1318359-21.3491211 c7.253418-4.1962891,15.9243164-4.2045898,23.1923828-0.0209961l111.9785156,64.4326172 c7.6083984,4.3779297,12.1582031,12.3554688,12.1689453,21.3388672c0.0117188,8.9853516-4.5185547,16.9746094-12.1171875,21.3720703 l-111.9790039,64.8076172C207.1206055,393.1923828,203.125,394.2460938,199.1298828,394.2460938z M199.1298828,231.0097656 c-1.4003906,0-2.7998047,0.3764648-4.1020508,1.1298828c-2.90625,1.6806641-4.6416016,4.8076172-4.6416016,8.3642578v129.2402344 c0,3.5615234,1.7387695,6.6914062,4.6508789,8.3701172c2.6079102,1.5039062,5.6000977,1.5,8.2109375-0.0117188 l111.9790039-64.8076172c2.9042969-1.6806641,4.6357422-4.8105469,4.6318359-8.3710938 c-0.0048828-3.5595703-1.7431641-6.6826172-4.6503906-8.3554688l-111.9790039-64.4335938 C201.9257812,231.3847656,200.5273438,231.0097656,199.1298828,231.0097656z" fill="inherit"/></g></svg>